HIERARCHY
ROOT Hips
{
	OFFSET 0.000000 1.471914 24.280096
	CHANNELS 6 Xposition Yposition Zposition Xrotation Yrotation Zrotation
	JOINT Spine
	{
		OFFSET 0.000000 0.900110 1.860670
		CHANNELS 6 Xposition Yposition Zposition Xrotation Yrotation Zrotation
		JOINT Spine1
		{
			OFFSET 0.000000 0.400320 2.270309
			CHANNELS 6 Xposition Yposition Zposition Xrotation Yrotation Zrotation
			JOINT Spine2
			{
				OFFSET 0.000000 0.200920 2.296560
				CHANNELS 6 Xposition Yposition Zposition Xrotation Yrotation Zrotation
				JOINT Spine3
				{
					OFFSET 0.000000 0.000000 2.305330
					CHANNELS 6 Xposition Yposition Zposition Xrotation Yrotation Zrotation
					JOINT Neck
					{
						OFFSET 0.000000 -0.864490 6.051487
						CHANNELS 6 Xposition Yposition Zposition Xrotation Yrotation Zrotation
						JOINT Head
						{
							OFFSET 0.000000 -0.550429 3.121674
							CHANNELS 6 Xposition Yposition Zposition Xrotation Yrotation Zrotation
							End Site
							{
								OFFSET 0.000000 0.000000 3.731750
							}
						}
					}
					JOINT RightShoulder
					{
						OFFSET -0.788280 -1.313800 4.256718
						CHANNELS 6 Xposition Yposition Zposition Xrotation Yrotation Zrotation
						JOINT RightArm
						{
							OFFSET -3.915130 0.000000 0.000000
							CHANNELS 6 Xposition Yposition Zposition Xrotation Yrotation Zrotation
							JOINT RightForeArm
							{
								OFFSET -6.914910 0.000000 0.000000
								CHANNELS 6 Xposition Yposition Zposition Xrotation Yrotation Zrotation
								JOINT RightHand
								{
									OFFSET -6.096219 0.000000 0.000000
									CHANNELS 6 Xposition Yposition Zposition Xrotation Yrotation Zrotation
									JOINT RightHandEnd
									{
										OFFSET -1.749950 0.000000 0.000000
										CHANNELS 6 Xposition Yposition Zposition Xrotation Yrotation Zrotation
										End Site
										{
											OFFSET -1.749950 0.000000 0.000000
										}
									}
									JOINT RightHandThumb1
									{
										OFFSET -0.699980 -1.166630 -0.466648
										CHANNELS 6 Xposition Yposition Zposition Xrotation Yrotation Zrotation
										End Site
										{
											OFFSET -1.690319 -0.452920 0.000000
										}
									}
								}
							}
						}
					}
					JOINT LeftShoulder
					{
						OFFSET 0.788280 -1.313800 4.256718
						CHANNELS 6 Xposition Yposition Zposition Xrotation Yrotation Zrotation
						JOINT LeftArm
						{
							OFFSET 3.915130 0.000000 0.000000
							CHANNELS 6 Xposition Yposition Zposition Xrotation Yrotation Zrotation
							JOINT LeftForeArm
							{
								OFFSET 6.914910 0.000000 0.000000
								CHANNELS 6 Xposition Yposition Zposition Xrotation Yrotation Zrotation
								JOINT LeftHand
								{
									OFFSET 6.096219 0.000000 0.000000
									CHANNELS 6 Xposition Yposition Zposition Xrotation Yrotation Zrotation
									JOINT LeftHandEnd
									{
										OFFSET 1.749950 0.000000 0.000000
										CHANNELS 6 Xposition Yposition Zposition Xrotation Yrotation Zrotation
										End Site
										{
											OFFSET 1.749950 0.000000 0.000000
										}
									}
									JOINT LeftHandThumb1
									{
										OFFSET 0.699980 -1.166630 -0.466648
										CHANNELS 6 Xposition Yposition Zposition Xrotation Yrotation Zrotation
										End Site
										{
											OFFSET 1.690319 -0.452920 0.000000
										}
									}
								}
							}
						}
					}
				}
			}
		}
	}
	JOINT RightUpLeg
	{
		OFFSET -2.338570 -0.252550 -0.551512
		CHANNELS 6 Xposition Yposition Zposition Xrotation Yrotation Zrotation
		JOINT RightLeg
		{
			OFFSET 0.000000 0.000000 -10.744959
			CHANNELS 6 Xposition Yposition Zposition Xrotation Yrotation Zrotation
			JOINT RightFoot
			{
				OFFSET 0.000000 -0.000001 -10.930849
				CHANNELS 6 Xposition Yposition Zposition Xrotation Yrotation Zrotation
				JOINT RightToeBase
				{
					OFFSET 0.000000 -4.087269 -1.487650
					CHANNELS 6 Xposition Yposition Zposition Xrotation Yrotation Zrotation
					End Site
					{
						OFFSET 0.000000 -1.891870 0.000000
					}
				}
			}
		}
	}
	JOINT LeftUpLeg
	{
		OFFSET 2.338570 -0.252550 -0.551512
		CHANNELS 6 Xposition Yposition Zposition Xrotation Yrotation Zrotation
		JOINT LeftLeg
		{
			OFFSET 0.000000 0.000000 -10.744959
			CHANNELS 6 Xposition Yposition Zposition Xrotation Yrotation Zrotation
			JOINT LeftFoot
			{
				OFFSET 0.000000 -0.000001 -10.930849
				CHANNELS 6 Xposition Yposition Zposition Xrotation Yrotation Zrotation
				JOINT LeftToeBase
				{
					OFFSET 0.000000 -4.087269 -1.487650
					CHANNELS 6 Xposition Yposition Zposition Xrotation Yrotation Zrotation
					End Site
					{
						OFFSET 0.000000 -1.891870 0.000000
					}
				}
			}
		}
	}
}
MOTION
Frames: 4
Frame Time: 0.041667
0.000006 26.534414 40.221626 -14.339067 6.234305 -15.624942 -0.000015 0.900095 1.860677 32.233971 -1.389165 -1.799681 0.000012 0.400268 2.270325 -0.000001 -0.000002 0.000008 0.000022 0.200896 2.296553 0.000004 -0.000001 0.000000 0.000022 0.000025 2.305331 -0.000015 0.000003 2.040913 -0.000018 -0.864478 6.051443 -4.353559 -0.073311 -175.850911 0.000010 -0.550423 3.121715 -0.000008 -0.000001 0.000001 -0.788276 -1.313732 4.256823 -120.319082 31.682440 -61.774888 -3.915131 -0.000038 -0.000023 0.000001 -0.000001 0.000003 -6.914913 -0.000020 -0.000007 -0.000019 -0.000045 -53.517503 -6.096179 -0.000002 0.000046 -0.000042 0.000022 -0.000118 -1.749879 -0.000036 0.000042 0.000001 0.000002 -0.000006 -0.699973 -1.166621 -0.466655 -0.000006 -0.000002 -0.000011 0.788256 -1.313771 4.256781 -119.957697 -52.776079 61.089014 3.915170 0.000018 -0.000038 0.000010 -0.000001 0.000012 6.914941 -0.000055 0.000003 0.000006 0.000008 26.839642 6.096233 0.000096 -0.000040 0.000041 -0.000032 0.000042 1.749985 0.000007 0.000025 0.000000 -0.000003 -0.000000 0.699951 -1.166623 -0.466625 0.000011 -0.000004 -0.000021 -2.338574 -0.252541 -0.551492 22.439540 -3.922957 -1.291204 0.000010 -0.000030 -10.744962 7.863329 5.057558 -0.958650 -0.000016 0.000101 -10.930821 -0.000003 -0.000002 0.000001 0.000012 -4.087249 -1.487647 -0.000003 0.000003 -0.000004 2.338569 -0.252536 -0.551475 21.276777 -2.579261 -1.229629 0.000000 -0.000025 -10.744916 8.141685 0.395649 -0.813304 -0.000006 0.000006 -10.930868 0.000014 -0.000003 0.000002 -0.000012 -4.087214 -1.487646 0.000000 0.000001 0.000001 
0.000001 26.534410 40.221642 -14.176051 6.458646 -15.818006 -0.000015 0.900092 1.860676 32.465440 -1.538095 -1.707403 0.000012 0.400265 2.270324 0.000001 -0.000001 0.000013 0.000024 0.200889 2.296560 0.000002 -0.000001 0.000001 0.000020 0.000027 2.305331 -0.000018 -0.000001 2.117336 -0.000020 -0.864472 6.051445 -4.552746 -0.491695 -175.974114 0.000010 -0.550422 3.121696 -0.000008 -0.000001 0.000002 -0.788276 -1.313728 4.256828 -120.117687 30.663284 -61.974985 -3.915140 -0.000038 -0.000023 -0.000002 0.000002 -0.000001 -6.914920 -0.000018 -0.000001 -0.000012 -0.000044 -51.996775 -6.096181 0.000000 0.000039 -0.000038 0.000021 -0.000121 -1.749894 -0.000044 0.000041 0.000005 0.000002 -0.000006 -0.699979 -1.166622 -0.466652 -0.000001 -0.000005 -0.000007 0.788255 -1.313767 4.256778 -119.920814 -52.743032 61.098392 3.915166 0.000017 -0.000041 0.000010 0.000000 0.000010 6.914945 -0.000052 -0.000001 -0.000001 0.000006 26.631613 6.096224 0.000095 -0.000032 0.000038 -0.000032 0.000044 1.749987 0.000007 0.000025 -0.000007 -0.000003 -0.000000 0.699947 -1.166622 -0.466633 0.000002 -0.000001 -0.000022 -2.338574 -0.252542 -0.551493 22.520361 -4.374992 -1.221798 0.000008 -0.000029 -10.744958 7.707273 4.784728 -0.976300 -0.000016 0.000098 -10.930822 -0.000003 -0.000000 0.000001 0.000011 -4.087253 -1.487648 0.000002 0.000003 -0.000003 2.338569 -0.252537 -0.551483 21.218713 -2.919612 -1.156809 0.000001 -0.000026 -10.744916 7.566627 0.175552 -0.777993 -0.000006 0.000001 -10.930866 0.000012 -0.000005 0.000001 -0.000012 -4.087219 -1.487650 -0.000001 0.000000 -0.000001 
-0.000002 26.534410 40.221645 -14.155617 6.597249 -16.068455 -0.000015 0.900091 1.860684 32.913698 -1.563478 -1.657811 0.000013 0.400267 2.270325 -0.000003 -0.000003 0.000009 0.000023 0.200887 2.296562 0.000004 -0.000001 0.000001 0.000021 0.000023 2.305335 -0.000016 0.000001 2.180999 -0.000017 -0.864473 6.051440 -4.834439 -0.789990 -175.740248 0.000010 -0.550421 3.121700 -0.000009 -0.000001 0.000001 -0.788274 -1.313722 4.256822 -119.379044 29.970317 -62.448850 -3.915140 -0.000032 -0.000023 -0.000003 0.000002 -0.000001 -6.914917 -0.000018 0.000001 -0.000011 -0.000041 -49.959832 -6.096175 0.000001 0.000042 -0.000043 0.000018 -0.000122 -1.749892 -0.000040 0.000041 0.000000 0.000002 -0.000005 -0.699979 -1.166618 -0.466656 -0.000004 -0.000004 -0.000006 0.788257 -1.313763 4.256773 -120.986146 -54.527412 60.507307 3.915168 0.000020 -0.000038 0.000012 -0.000001 0.000015 6.914943 -0.000052 -0.000004 0.000005 0.000005 26.121741 6.096231 0.000096 -0.000036 0.000038 -0.000032 0.000043 1.749978 0.000009 0.000028 -0.000002 -0.000004 0.000002 0.699939 -1.166619 -0.466623 0.000004 -0.000004 -0.000020 -2.338574 -0.252542 -0.551486 22.539950 -4.508983 -1.172971 0.000010 -0.000028 -10.744962 7.767388 4.498803 -0.986013 -0.000017 0.000102 -10.930820 -0.000005 -0.000001 0.000003 0.000012 -4.087253 -1.487646 -0.000002 0.000002 -0.000005 2.338569 -0.252539 -0.551469 21.342120 -3.142612 -1.116215 0.000001 -0.000030 -10.744912 7.204009 0.426595 -0.753278 -0.000004 0.000002 -10.930865 0.000015 -0.000003 0.000000 -0.000012 -4.087215 -1.487651 0.000003 -0.000000 -0.000000 
-0.000002 26.534409 40.221645 -14.076953 6.929311 -16.333506 -0.000014 0.900094 1.860682 33.216101 -1.888106 -1.464729 0.000012 0.400273 2.270323 -0.000001 -0.000002 0.000009 0.000023 0.200896 2.296558 0.000002 -0.000001 -0.000000 0.000022 0.000022 2.305339 -0.000015 -0.000002 2.223526 -0.000017 -0.864474 6.051444 -5.033718 -1.258270 -176.455574 0.000011 -0.550422 3.121696 -0.000009 -0.000001 0.000001 -0.788274 -1.313724 4.256833 -119.398742 29.845809 -62.348419 -3.915136 -0.000034 -0.000019 -0.000006 0.000002 -0.000002 -6.914919 -0.000020 -0.000003 -0.000012 -0.000038 -48.124311 -6.096173 -0.000001 0.000043 -0.000044 0.000019 -0.000121 -1.749892 -0.000036 0.000039 0.000004 0.000002 -0.000005 -0.699979 -1.166621 -0.466655 -0.000002 -0.000004 -0.000005 0.788256 -1.313764 4.256780 -120.036873 -53.467800 61.559662 3.915178 0.000016 -0.000042 0.000010 -0.000001 0.000013 6.914943 -0.000050 -0.000001 0.000003 0.000005 26.081566 6.096235 0.000095 -0.000037 0.000038 -0.000032 0.000042 1.749978 0.000008 0.000029 0.000003 -0.000005 -0.000000 0.699948 -1.166622 -0.466622 0.000011 -0.000006 -0.000022 -2.338573 -0.252541 -0.551487 22.671609 -5.014031 -1.033600 0.000010 -0.000029 -10.744954 7.477684 4.472592 -0.969643 -0.000017 0.000104 -10.930822 -0.000005 -0.000000 0.000002 0.000013 -4.087254 -1.487649 0.000004 0.000003 -0.000002 2.338570 -0.252538 -0.551476 21.358135 -3.751479 -0.979838 0.000001 -0.000026 -10.744913 6.870272 0.427037 -0.749738 -0.000006 -0.000001 -10.930865 0.000015 -0.000003 0.000004 -0.000013 -4.087214 -1.487649 -0.000001 0.000001 0.000002 
